<svg xmlns="http://www.w3.org/2000/svg" width="249.645" height="161.71" viewBox="0 0 249.645 161.71">
  <g id="Vector_Smart_Object" data-name="Vector Smart Object" transform="translate(-81.157 -551.508)">
    <g id="Vector_Smart_Object-2" data-name="Vector Smart Object">
      <g id="Group_10" data-name="Group 10">
        <path id="Path_3" data-name="Path 3" d="M315.632,556.349l-.205,3.717a.269.269,0,0,1-.139.222l-2.78,1.525a4.316,4.316,0,0,0-.112-1.4l-1.924-.107a6.989,6.989,0,0,0-.255,2.765l-7.817,4.287-.073,1.336,10.049-2.107a4.424,4.424,0,0,1,1.154-.087l1.362.076a.18.18,0,0,1,.168.19l-.161,2.919a20.779,20.779,0,0,0,.094,3.416l-3.488,3.266-.061,1.109,4.18-1.357c.187.529.37.83.492.836s.338-.271.582-.777l4.006,1.816.061-1.109-3.108-3.636a20.66,20.66,0,0,0,.469-3.383l.161-2.92a.179.179,0,0,1,.187-.169l1.362.077a4.44,4.44,0,0,1,1.137.215l9.756,3.217.073-1.336-7.3-5.135a7.011,7.011,0,0,0,.051-2.777l-1.925-.107a4.312,4.312,0,0,0-.264,1.38l-2.6-1.826a.274.274,0,0,1-.114-.236l.205-3.717c.149-2.716-.767-4.99-1.342-5.022S315.781,553.633,315.632,556.349Z"/>
        <path id="Path_4" data-name="Path 4" d="M84.452,695.809a4.352,4.352,0,0,0-3.173,5.252c.823,3.424,6.061,6.759,6.061,6.759s3.141-5.386,2.318-8.81A4.309,4.309,0,0,0,84.452,695.809Zm1.484,6.171a2,2,0,1,1,1.459-2.416A1.982,1.982,0,0,1,85.936,701.98Z"/>
        <ellipse id="Ellipse_1" data-name="Ellipse 1" cx="2.654" cy="1.339" rx="2.654" ry="1.339" transform="translate(85.281 710.615) rotate(-13.636)"/>
        <g id="Group_9" data-name="Group 9">
          <g id="Group_6" data-name="Group 6">
            <path id="Path_5" data-name="Path 5" d="M88.4,711.681a.382.382,0,0,1-.347-.089.389.389,0,0,1-.028-.545c.254-.284.505-.57.753-.861a.38.38,0,0,1,.539-.04.389.389,0,0,1,.04.544q-.378.442-.764.875A.391.391,0,0,1,88.4,711.681Z"/>
          </g>
          <g id="Group_7" data-name="Group 7">
            <path id="Path_6" data-name="Path 6" d="M90.618,709.043a.379.379,0,0,1-.33-.074.389.389,0,0,1-.059-.542q.707-.892,1.384-1.81a.378.378,0,0,1,.535-.08.387.387,0,0,1,.078.539q-.684.93-1.4,1.833A.382.382,0,0,1,90.618,709.043Zm104.32-27.431a.393.393,0,0,1-.475-.28.375.375,0,0,1,.269-.463,9.11,9.11,0,0,0,2.048-.764.381.381,0,0,1,.515.167.389.389,0,0,1-.166.52A9.882,9.882,0,0,1,194.937,681.612Zm-2.259.471-.027.007c-.793.133-1.567.226-2.3.279a.386.386,0,0,1-.053-.77c.709-.05,1.458-.141,2.227-.271a.386.386,0,0,1,.153.755Zm-4.543.286a.351.351,0,0,1-.114.01,13.179,13.179,0,0,1-2.318-.352.386.386,0,0,1,.184-.749,12.382,12.382,0,0,0,2.183.331.386.386,0,0,1,.066.76Zm10.792-2.828a.381.381,0,0,1-.38-.123.389.389,0,0,1,.04-.545,10.6,10.6,0,0,0,1.5-1.615.38.38,0,0,1,.536-.072.388.388,0,0,1,.072.54,11.494,11.494,0,0,1-1.612,1.733A.373.373,0,0,1,198.928,679.541ZM93.341,705.352a.379.379,0,0,1-.309-.058.388.388,0,0,1-.1-.536q.647-.94,1.269-1.9a.382.382,0,0,1,.529-.112.387.387,0,0,1,.111.533q-.628.972-1.28,1.918A.381.381,0,0,1,93.341,705.352Zm90.409-24.11a.381.381,0,0,1-.261-.031,10.152,10.152,0,0,1-1.974-1.308.389.389,0,0,1-.048-.544.383.383,0,0,1,.538-.048,9.33,9.33,0,0,0,1.825,1.209.388.388,0,0,1,.171.518A.383.383,0,0,1,183.75,681.242Zm17.951-5.318a.374.374,0,0,1-.267-.034.388.388,0,0,1-.162-.52,16.105,16.105,0,0,0,.885-2.062.383.383,0,0,1,.488-.234.387.387,0,0,1,.233.493,16.819,16.819,0,0,1-.927,2.159A.379.379,0,0,1,201.7,675.925ZM95.837,701.5a.377.377,0,0,1-.29-.047.386.386,0,0,1-.126-.53q.595-.974,1.169-1.967a.379.379,0,0,1,.523-.138.387.387,0,0,1,.136.528c-.386.665-.778,1.327-1.178,1.98A.378.378,0,0,1,95.837,701.5Zm84.437-23.169a.382.382,0,0,1-.391-.136,14.743,14.743,0,0,1-1.285-1.971.385.385,0,0,1,.149-.523.378.378,0,0,1,.519.149,13.947,13.947,0,0,0,1.218,1.867.389.389,0,0,1-.064.542A.379.379,0,0,1,180.273,678.33ZM98.14,697.524a.377.377,0,0,1-.276-.038.386.386,0,0,1-.148-.524q.553-1,1.089-2.016a.381.381,0,0,1,.517-.159.388.388,0,0,1,.157.522q-.54,1.021-1.1,2.028A.383.383,0,0,1,98.14,697.524Zm105.1-25.922a.366.366,0,0,1-.175,0,.385.385,0,0,1-.288-.461c.162-.714.293-1.464.39-2.23a.383.383,0,1,1,.76.1c-.1.791-.236,1.566-.4,2.3A.385.385,0,0,1,203.239,671.6ZM100.291,693.464a.379.379,0,0,1-.264-.032.388.388,0,0,1-.166-.52q.521-1.019,1.029-2.05a.379.379,0,0,1,.512-.173.387.387,0,0,1,.172.517q-.512,1.034-1.032,2.059A.388.388,0,0,1,100.291,693.464Zm77.753-19.129a.383.383,0,0,1-.443-.23c-.276-.682-.536-1.422-.774-2.2a.386.386,0,0,1,.253-.482.4.4,0,0,1,.478.255c.232.757.484,1.475.751,2.136a.387.387,0,0,1-.21.5A.4.4,0,0,1,178.045,674.335Zm88.412-21.986-.134.032a.382.382,0,0,1-.462-.283.386.386,0,0,1,.282-.466l.141-.034c.67-.164,1.361-.355,2.044-.565a.361.361,0,0,1,.477.257.386.386,0,0,1-.255.481C267.853,651.986,267.147,652.18,266.457,652.349Zm-2.371.483-.03.005c-.758.123-1.526.22-2.286.287a.383.383,0,0,1-.415-.351.389.389,0,0,1,.349-.417c.74-.065,1.491-.159,2.232-.279a.386.386,0,0,1,.15.756Zm6.6-1.79a.381.381,0,0,1-.448-.241.388.388,0,0,1,.226-.5c.692-.258,1.4-.544,2.092-.852a.373.373,0,0,1,.5.2.385.385,0,0,1-.2.507c-.709.313-1.426.606-2.132.869Zm-66.862,16a.384.384,0,0,1-.472-.391c.03-.743.033-1.508.007-2.274a.388.388,0,0,1,.369-.4.384.384,0,0,1,.4.372c.026.785.024,1.57-.008,2.333A.385.385,0,0,1,203.827,667.044Zm55.727-13.811a.394.394,0,0,1-.085.01c-.753.013-1.527,0-2.3-.042a.386.386,0,0,1,.04-.771c.758.039,1.516.054,2.252.042a.386.386,0,0,1,.1.761Zm15.305-4.028a.383.383,0,0,1-.433-.2.39.39,0,0,1,.17-.519c.663-.337,1.332-.7,1.989-1.08a.385.385,0,0,1,.381.67c-.67.387-1.351.756-2.026,1.1A.4.4,0,0,1,274.859,649.2ZM255.005,653a.4.4,0,0,1-.134.008c-.743-.086-1.509-.2-2.275-.331a.385.385,0,0,1,.13-.759c.752.13,1.5.239,2.234.324a.386.386,0,0,1,.046.758Zm23.81-6.078a.379.379,0,0,1-.412-.168.386.386,0,0,1,.115-.532q.95-.613,1.876-1.277a.379.379,0,0,1,.533.091.387.387,0,0,1-.091.537q-.939.674-1.905,1.3A.374.374,0,0,1,278.815,646.922Zm-176.488,42.42a.38.38,0,0,1-.256-.028.387.387,0,0,1-.177-.515q.494-1.03.983-2.068a.383.383,0,1,1,.69.331q-.489,1.04-.986,2.073A.382.382,0,0,1,102.328,689.342Zm148.187-37.12a.39.39,0,0,1-.175,0q-1.119-.254-2.231-.562a.386.386,0,0,1-.268-.473.38.38,0,0,1,.469-.271q1.1.3,2.2.553a.387.387,0,0,1,.007.751Zm32.023-7.962a.383.383,0,0,1-.392-.138.39.39,0,0,1,.067-.542q.892-.7,1.759-1.44a.381.381,0,0,1,.539.045.389.389,0,0,1-.045.544q-.88.751-1.783,1.461A.384.384,0,0,1,282.537,644.261Zm-105.85,25.686h0a.384.384,0,0,1-.46-.287c-.179-.77-.319-1.543-.416-2.3a.382.382,0,1,1,.758-.1c.093.727.229,1.474.4,2.218A.385.385,0,0,1,176.687,669.947Zm26.988-7.5-.051.01a.384.384,0,0,1-.42-.344c-.077-.743-.18-1.5-.308-2.256a.392.392,0,0,1,.312-.444.382.382,0,0,1,.441.316c.131.77.237,1.546.316,2.305A.386.386,0,0,1,203.676,662.443Zm82.343-21.156a.38.38,0,0,1-.372-.115.388.388,0,0,1,.023-.545q.833-.771,1.643-1.577a.378.378,0,0,1,.54,0,.386.386,0,0,1,0,.545q-.821.817-1.664,1.6A.371.371,0,0,1,286.019,641.287Zm-39.909,9.728a.379.379,0,0,1-.205-.006q-1.094-.348-2.18-.73a.388.388,0,0,1-.235-.492.381.381,0,0,1,.487-.237q1.074.378,2.157.722a.387.387,0,0,1,.25.484A.383.383,0,0,1,246.109,651.015ZM104.282,685.193a.379.379,0,0,1-.252-.026.387.387,0,0,1-.184-.513q.482-1.039.96-2.083a.38.38,0,0,1,.508-.187.387.387,0,0,1,.187.512q-.48,1.045-.962,2.085A.379.379,0,0,1,104.282,685.193Zm184.987-47.139a.378.378,0,0,1-.353-.095.387.387,0,0,1-.015-.545q.778-.832,1.533-1.691a.38.38,0,0,1,.54-.033.39.39,0,0,1,.032.545q-.763.869-1.55,1.708A.375.375,0,0,1,289.269,638.054ZM241.793,649.5a.379.379,0,0,1-.225-.014q-1.072-.41-2.136-.84a.387.387,0,0,1-.212-.5.382.382,0,0,1,.5-.215q1.057.429,2.121.835a.386.386,0,0,1-.045.736Zm-65.678,15.9a.4.4,0,0,1-.086.011.384.384,0,0,1-.387-.381,18.89,18.89,0,0,1,.113-2.339.389.389,0,0,1,.423-.34.385.385,0,0,1,.337.427,17.966,17.966,0,0,0-.108,2.243A.386.386,0,0,1,176.115,665.4Zm26.794-7.492h0a.383.383,0,0,1-.46-.287l-.054-.23c-.157-.655-.334-1.314-.53-1.972a.387.387,0,0,1,.256-.48.374.374,0,0,1,.477.259q.3,1.006.541,2.012l.055.234A.386.386,0,0,1,202.909,657.908ZM106.2,681.02a.377.377,0,0,1-.249-.025.387.387,0,0,1-.188-.512l.955-2.09a.38.38,0,0,1,.507-.188.387.387,0,0,1,.187.512l-.955,2.089A.381.381,0,0,1,106.2,681.02Zm186.1-46.411a.381.381,0,0,1-.335-.078.388.388,0,0,1-.049-.544q.724-.876,1.425-1.776a.381.381,0,0,1,.537-.064.387.387,0,0,1,.064.541q-.708.908-1.438,1.793A.389.389,0,0,1,292.3,634.609Zm-54.745,13.184a.372.372,0,0,1-.237-.019q-1.055-.442-2.1-.9a.387.387,0,0,1-.2-.506.382.382,0,0,1,.5-.2q1.047.45,2.1.9a.385.385,0,0,1,.205.5A.38.38,0,0,1,237.552,647.792Zm-60.925,13.06a.373.373,0,0,1-.182,0,.386.386,0,0,1-.278-.468,18.04,18.04,0,0,1,.71-2.234.383.383,0,1,1,.712.284,17.117,17.117,0,0,0-.681,2.137A.384.384,0,0,1,176.627,660.853ZM108.11,676.838a.375.375,0,0,1-.25-.026.386.386,0,0,1-.186-.511q.481-1.046.967-2.089a.38.38,0,0,1,.509-.185.387.387,0,0,1,.182.513q-.485,1.04-.965,2.085A.381.381,0,0,1,108.11,676.838Zm187-45.839a.38.38,0,0,1-.318-.065.39.39,0,0,1-.079-.54q.677-.919,1.33-1.855a.381.381,0,0,1,.533-.094.388.388,0,0,1,.093.538q-.661.945-1.341,1.87A.381.381,0,0,1,295.112,631Zm-61.758,14.992a.376.376,0,0,1-.241-.02l-2.093-.905a.386.386,0,0,1-.2-.505.378.378,0,0,1,.5-.2l2.1.9a.387.387,0,0,1,.2.507A.381.381,0,0,1,233.354,645.991ZM201.6,653.5a.383.383,0,0,1-.449-.242c-.258-.712-.541-1.424-.839-2.118a.385.385,0,0,1,.2-.507.377.377,0,0,1,.5.2c.3.708.593,1.435.856,2.159a.386.386,0,0,1-.227.5Zm27.56-9.307a.376.376,0,0,1-.236-.019q-1.056-.442-2.109-.864a.387.387,0,0,1-.215-.5.383.383,0,0,1,.5-.216c.705.281,1.411.573,2.12.868a.388.388,0,0,1,.206.5A.379.379,0,0,1,229.156,644.194Zm-50.861,12.4a.379.379,0,0,1-.274-.037.387.387,0,0,1-.15-.525,20.558,20.558,0,0,1,1.237-1.981.382.382,0,0,1,.533-.09.388.388,0,0,1,.09.538,19.6,19.6,0,0,0-1.191,1.906A.384.384,0,0,1,178.3,656.591ZM297.74,627.237a.383.383,0,0,1-.3-.053.389.389,0,0,1-.105-.536q.632-.956,1.242-1.923a.38.38,0,0,1,.528-.119.388.388,0,0,1,.118.533q-.616.977-1.252,1.938A.385.385,0,0,1,297.74,627.237ZM110.056,672.669a.381.381,0,0,1-.255-.026.387.387,0,0,1-.18-.515q.494-1.042,1-2.079a.38.38,0,0,1,.511-.176.386.386,0,0,1,.175.516q-.5,1.033-.993,2.072A.382.382,0,0,1,110.056,672.669Zm89.721-23.39a.382.382,0,0,1-.431-.2c-.34-.676-.7-1.35-1.08-2a.387.387,0,0,1,.137-.528.381.381,0,0,1,.522.138c.385.664.756,1.351,1.1,2.041a.387.387,0,0,1-.168.519A.368.368,0,0,1,199.776,649.279ZM224.91,642.5a.37.37,0,0,1-.222-.014q-1.072-.4-2.141-.764a.387.387,0,0,1-.24-.489.381.381,0,0,1,.484-.242q1.08.366,2.162.772a.386.386,0,0,1-.043.736Zm-43.983,10.346a.376.376,0,0,1-.343-.086.387.387,0,0,1-.035-.543c.5-.569,1.037-1.134,1.608-1.682a.382.382,0,0,1,.541.016.388.388,0,0,1-.014.545c-.555.53-1.08,1.079-1.56,1.63A.385.385,0,0,1,180.926,652.847Zm119.266-29.5a.38.38,0,0,1-.288-.044.39.39,0,0,1-.129-.531q.592-.986,1.161-1.981a.381.381,0,0,1,.522-.142.387.387,0,0,1,.14.527q-.574,1-1.168,2A.387.387,0,0,1,300.192,623.344ZM112.066,668.527a.377.377,0,0,1-.262-.03.388.388,0,0,1-.17-.518q.516-1.034,1.044-2.058a.379.379,0,0,1,.515-.165.388.388,0,0,1,.163.52q-.525,1.02-1.038,2.05A.386.386,0,0,1,112.066,668.527Zm108.517-27.485a.378.378,0,0,1-.2-.005q-1.1-.325-2.186-.593a.386.386,0,0,1-.281-.466.382.382,0,0,1,.462-.284c.739.18,1.48.383,2.221.6a.387.387,0,0,1-.018.746Zm-36.357,8.637a.383.383,0,0,1-.388-.132A.387.387,0,0,1,183.9,649c.578-.474,1.2-.945,1.842-1.4a.381.381,0,0,1,.533.093.389.389,0,0,1-.092.538c-.63.447-1.236.907-1.8,1.37A.375.375,0,0,1,184.226,649.679Zm13.247-4.373a.38.38,0,0,1-.408-.161c-.416-.629-.857-1.252-1.312-1.854a.39.39,0,0,1,0-.471.371.371,0,0,1-.061-.1.387.387,0,0,1,.215-.5c.732-.29,1.452-.561,2.153-.812a.377.377,0,0,1,.488.234.387.387,0,0,1-.232.492q-.947.339-1.934.727c.456.6.9,1.231,1.315,1.861a.387.387,0,0,1-.228.589Zm105-25.957a.385.385,0,0,1-.426-.561q.55-1.009,1.077-2.023a.383.383,0,0,1,.517-.161.388.388,0,0,1,.16.521q-.531,1.02-1.084,2.035A.38.38,0,0,1,302.476,619.349ZM187.955,647.024a.383.383,0,0,1-.415-.172.388.388,0,0,1,.124-.531c.642-.4,1.312-.794,1.992-1.169a.379.379,0,0,1,.518.153.387.387,0,0,1-.152.523c-.659.364-1.313.747-1.957,1.148A.358.358,0,0,1,187.955,647.024Zm28.194-7.059a.391.391,0,0,1-.159,0c-.75-.138-1.5-.251-2.229-.333a.386.386,0,0,1,.086-.767c.746.084,1.513.2,2.28.34a.387.387,0,0,1,.022.755ZM114.177,664.434a.377.377,0,0,1-.271-.036.387.387,0,0,1-.155-.523q.545-1.019,1.107-2.026a.381.381,0,0,1,.52-.147.388.388,0,0,1,.145.526q-.558,1-1.1,2.013A.381.381,0,0,1,114.177,664.434Zm77.781-19.629a.382.382,0,0,1-.433-.205.388.388,0,0,1,.176-.517c.7-.343,1.394-.669,2.087-.975a.375.375,0,0,1,.5.2.387.387,0,0,1-.2.508c-.683.3-1.371.623-2.059.963A.361.361,0,0,1,191.958,644.805Zm19.665-5.345a.375.375,0,0,1-.1.01c-.754-.027-1.509-.019-2.242.02a.386.386,0,0,1-.041-.77c.755-.041,1.533-.048,2.31-.021a.386.386,0,0,1,.077.76Zm-11.174,1.946a.382.382,0,0,1-.454-.259.387.387,0,0,1,.248-.484c.773-.248,1.512-.469,2.2-.665a.365.365,0,0,1,.471.266.386.386,0,0,1-.264.476c-.684.194-1.414.413-2.178.659Zm6.634-1.7-.034.006c-.689.1-1.378.239-2.048.4l-.15.037a.382.382,0,0,1-.462-.284.386.386,0,0,1,.282-.466l.15-.037c.692-.169,1.4-.31,2.116-.416a.386.386,0,0,1,.147.757ZM304.6,615.268a.379.379,0,0,1-.261-.03.386.386,0,0,1-.171-.518q.511-1.031,1-2.064a.379.379,0,0,1,.51-.181.387.387,0,0,1,.18.513q-.493,1.041-1.007,2.077A.383.383,0,0,1,304.6,615.268ZM194.71,641.645a.378.378,0,0,1-.379-.122c-.489-.57-1-1.132-1.531-1.672a.388.388,0,0,1,0-.545.379.379,0,0,1,.54,0c.538.551,1.065,1.126,1.564,1.708a.388.388,0,0,1-.039.544A.374.374,0,0,1,194.71,641.645Zm-78.288,18.768a.378.378,0,0,1-.284-.043.386.386,0,0,1-.135-.527q.583-1,1.186-1.981a.38.38,0,0,1,.527-.125.388.388,0,0,1,.123.531q-.6.976-1.179,1.966A.379.379,0,0,1,116.422,660.413Zm190.145-49.3a.382.382,0,0,1-.249-.024.387.387,0,0,1-.189-.511q.475-1.051.926-2.1a.383.383,0,0,1,.5-.2.387.387,0,0,1,.2.507q-.454,1.054-.932,2.111A.385.385,0,0,1,306.567,611.11ZM118.833,656.5a.38.38,0,0,1-.3-.052.389.389,0,0,1-.111-.534q.63-.969,1.284-1.918a.38.38,0,0,1,.532-.1.388.388,0,0,1,.1.537q-.649.942-1.271,1.9A.383.383,0,0,1,118.833,656.5Zm72.677-18.129a.382.382,0,0,1-.345-.087c-.562-.506-1.145-1-1.731-1.456a.388.388,0,0,1-.067-.541.38.38,0,0,1,.536-.068c.6.471,1.2.972,1.77,1.489a.387.387,0,0,1,.032.544A.377.377,0,0,1,191.51,638.369Zm-70.069,14.348a.379.379,0,0,1-.317-.065.389.389,0,0,1-.08-.54q.681-.93,1.394-1.836a.377.377,0,0,1,.537-.063.388.388,0,0,1,.062.542q-.7.9-1.378,1.817A.38.38,0,0,1,121.441,652.717Zm186.948-45.832a.381.381,0,0,1-.236-.019.387.387,0,0,1-.207-.5q.44-1.07.854-2.129a.381.381,0,0,1,.5-.218.388.388,0,0,1,.216.5q-.417,1.066-.859,2.142A.384.384,0,0,1,308.388,606.885ZM187.914,635.543a.38.38,0,0,1-.305-.056c-.627-.427-1.27-.835-1.908-1.211a.388.388,0,0,1-.137-.528.38.38,0,0,1,.522-.138c.654.385,1.31.8,1.952,1.238a.387.387,0,0,1,.1.534A.376.376,0,0,1,187.914,635.543ZM124.27,649.115a.38.38,0,0,1-.338-.082.387.387,0,0,1-.045-.543q.741-.881,1.513-1.732a.38.38,0,0,1,.54-.024.389.389,0,0,1,.024.545q-.763.841-1.493,1.709A.385.385,0,0,1,124.27,649.115ZM310.065,602.6a.373.373,0,0,1-.225-.014.386.386,0,0,1-.223-.5q.4-1.087.781-2.159a.383.383,0,0,1,.489-.235.387.387,0,0,1,.232.493q-.379,1.078-.786,2.172A.38.38,0,0,1,310.065,602.6ZM183.979,633.226a.379.379,0,0,1-.26-.029c-.668-.337-1.358-.655-2.051-.948a.385.385,0,0,1-.205-.5.379.379,0,0,1,.5-.207c.708.3,1.413.623,2.1.966a.388.388,0,0,1,.172.517A.379.379,0,0,1,183.979,633.226Zm-56.635,12.5a.378.378,0,0,1-.359-.1.387.387,0,0,1,0-.545q.8-.822,1.644-1.615a.38.38,0,0,1,.54.019.388.388,0,0,1-.018.545q-.83.782-1.623,1.592A.379.379,0,0,1,127.343,645.726Zm52.431-14.274a.373.373,0,0,1-.215-.012c-.7-.242-1.422-.47-2.154-.672a.386.386,0,0,1,.2-.745c.748.208,1.488.44,2.2.689a.387.387,0,0,1-.035.74Zm-49.1,11.138a.381.381,0,0,1-.38-.124.388.388,0,0,1,.041-.544q.867-.751,1.773-1.469a.382.382,0,0,1,.538.066.389.389,0,0,1-.065.542q-.893.707-1.748,1.448A.383.383,0,0,1,130.675,642.589Zm180.92-44.334a.377.377,0,0,1-.212-.01.386.386,0,0,1-.24-.488q.367-1.1.706-2.185a.383.383,0,0,1,.481-.253.389.389,0,0,1,.249.485q-.342,1.086-.712,2.2A.382.382,0,0,1,311.595,598.255ZM175.382,630.228a.383.383,0,0,1-.169,0c-.724-.154-1.471-.291-2.221-.406a.386.386,0,0,1,.114-.763c.765.117,1.527.256,2.265.415a.386.386,0,0,1,.011.752Zm-41.124,9.521a.382.382,0,0,1-.4-.15.388.388,0,0,1,.087-.539q.927-.671,1.895-1.307a.38.38,0,0,1,.529.112.388.388,0,0,1-.112.534q-.953.627-1.866,1.288A.38.38,0,0,1,134.258,639.75Zm36.62-10.213a.367.367,0,0,1-.126.008q-1.108-.1-2.255-.155a.386.386,0,0,1,.033-.77q1.167.05,2.293.158a.386.386,0,0,1,.055.759Zm-32.8,7.7a.381.381,0,0,1-.42-.179.387.387,0,0,1,.135-.527q.979-.584,2-1.134a.382.382,0,0,1,.516.16.387.387,0,0,1-.157.522q-1.007.542-1.972,1.117A.392.392,0,0,1,138.074,637.239Zm174.9-43.38a.38.38,0,0,1-.2,0,.387.387,0,0,1-.258-.479q.33-1.125.625-2.21a.383.383,0,1,1,.737.2q-.3,1.092-.629,2.224A.384.384,0,0,1,312.971,593.859Zm-146.647,35.48a.362.362,0,0,1-.087.01q-1.113.011-2.26.072a.383.383,0,0,1-.4-.365.388.388,0,0,1,.361-.405q1.166-.063,2.3-.072a.386.386,0,0,1,.094.76Zm-24.231,5.739a.382.382,0,0,1-.435-.209.386.386,0,0,1,.18-.514q1.024-.5,2.09-.955a.381.381,0,0,1,.5.2.387.387,0,0,1-.2.506q-1.051.454-2.061.94A.331.331,0,0,1,142.093,635.079Zm19.681-5.492a.531.531,0,0,1-.053.009q-1.11.11-2.249.271a.383.383,0,0,1-.432-.329.393.393,0,0,1,.326-.435q1.155-.162,2.279-.275a.386.386,0,0,1,.128.759Zm-15.493,3.685a.382.382,0,0,1-.447-.239.386.386,0,0,1,.223-.5q1.058-.406,2.159-.778a.379.379,0,0,1,.484.244.385.385,0,0,1-.241.487q-1.087.368-2.132.767A.279.279,0,0,1,146.281,633.271Zm10.977-3.046-.022,0q-1.1.2-2.222.447a.383.383,0,0,1-.454-.3.361.361,0,0,1,.292-.459q1.139-.25,2.249-.451a.386.386,0,0,1,.158.755Zm-6.657,1.584a.381.381,0,0,1-.456-.267.386.386,0,0,1,.259-.479q1.087-.323,2.213-.612a.367.367,0,0,1,.465.279.386.386,0,0,1-.275.469q-1.114.287-2.187.6Zm163.578-42.4a.37.37,0,0,1-.185,0,.385.385,0,0,1-.276-.468q.285-1.144.528-2.234a.382.382,0,1,1,.746.169q-.245,1.1-.533,2.253A.385.385,0,0,1,314.179,589.413Zm1.005-4.5a.383.383,0,0,1-.465-.449q.229-1.176.4-2.257a.383.383,0,1,1,.755.125q-.177,1.092-.409,2.282A.386.386,0,0,1,315.184,584.915Z"/>
          </g>
          <g id="Group_8" data-name="Group 8">
            <path id="Path_7" data-name="Path 7" d="M315.935,580.168a.393.393,0,0,1-.134.008.383.383,0,0,1-.336-.426c.044-.394.081-.774.111-1.138a.383.383,0,1,1,.763.064q-.047.558-.115,1.16A.383.383,0,0,1,315.935,580.168Z"/>
          </g>
        </g>
      </g>
    </g>
    <path id="Color_Overlay" data-name="Color Overlay" d="M85.6,711.916c-.175-.718.839-1.581,2.264-1.927s2.721-.043,2.9.676-.84,1.581-2.264,1.927a4.9,4.9,0,0,1-1.147.143C86.428,712.735,85.722,712.434,85.6,711.916Zm4.691-2.948a.388.388,0,0,1-.059-.542q.706-.892,1.383-1.81a.379.379,0,0,1,.535-.08.387.387,0,0,1,.078.539q-.684.93-1.4,1.833a.39.39,0,0,1-.3.145A.375.375,0,0,1,90.288,708.969Zm-9.008-7.907a4.313,4.313,0,1,1,8.378-2.051c.823,3.424-2.318,8.81-2.318,8.81S82.1,704.485,81.28,701.061ZM85,698.092a1.975,1.975,0,1,0,.469-.057A1.954,1.954,0,0,0,85,698.092Zm8.031,7.2a.388.388,0,0,1-.1-.536q.647-.94,1.268-1.9a.382.382,0,0,1,.529-.112.387.387,0,0,1,.111.534q-.628.972-1.28,1.918a.376.376,0,0,1-.224.155.386.386,0,0,1-.091.011A.376.376,0,0,1,93.032,705.294Zm2.515-3.842a.386.386,0,0,1-.125-.53q.594-.973,1.169-1.966a.379.379,0,0,1,.523-.138.388.388,0,0,1,.137.528q-.579,1-1.178,1.98a.381.381,0,0,1-.326.184A.369.369,0,0,1,95.547,701.452Zm2.318-3.966a.387.387,0,0,1-.148-.524q.553-1,1.09-2.016a.38.38,0,0,1,.517-.158.387.387,0,0,1,.158.522q-.54,1.021-1.1,2.028a.386.386,0,0,1-.244.187.371.371,0,0,1-.089.011A.383.383,0,0,1,97.864,697.486Zm2.331-4.011a.361.361,0,0,1-.167-.042.387.387,0,0,1-.166-.519q.521-1.019,1.029-2.051a.379.379,0,0,1,.512-.172.387.387,0,0,1,.172.518q-.512,1.034-1.032,2.058a.382.382,0,0,1-.341.209Zm1.876-4.16a.387.387,0,0,1-.176-.516q.494-1.03.983-2.067a.383.383,0,1,1,.69.331q-.489,1.039-.986,2.073a.384.384,0,0,1-.255.207.364.364,0,0,1-.088.011A.386.386,0,0,1,102.071,689.315Zm1.959-4.147a.387.387,0,0,1-.184-.513q.482-1.039.959-2.083a.38.38,0,0,1,.508-.187.388.388,0,0,1,.187.512q-.481,1.044-.963,2.084a.379.379,0,0,1-.346.223A.385.385,0,0,1,104.03,685.167Zm83.992-2.788a13.176,13.176,0,0,1-2.318-.352.386.386,0,0,1,.184-.749,12.408,12.408,0,0,0,2.182.331.386.386,0,0,1,.066.76.344.344,0,0,1-.086.011Zm1.922-.369a.385.385,0,0,1,.355-.411c.709-.05,1.458-.141,2.227-.271a.382.382,0,0,1,.44.317.387.387,0,0,1-.287.438l-.027.006c-.793.133-1.567.227-2.3.279h-.028A.383.383,0,0,1,189.943,682.01Zm4.519-.678a.376.376,0,0,1,.269-.464,9.11,9.11,0,0,0,2.048-.763.38.38,0,0,1,.515.167.388.388,0,0,1-.166.519,9.851,9.851,0,0,1-2.191.82.409.409,0,0,1-.094.011A.39.39,0,0,1,194.462,681.332Zm-10.973-.121a10.153,10.153,0,0,1-1.975-1.308.39.39,0,0,1-.048-.544.384.384,0,0,1,.539-.048,9.3,9.3,0,0,0,1.825,1.21.388.388,0,0,1,.171.517.383.383,0,0,1-.252.2.357.357,0,0,1-.087.011A.4.4,0,0,1,183.489,681.212Zm-77.54-.217a.387.387,0,0,1-.188-.512l.955-2.09a.38.38,0,0,1,.508-.188.386.386,0,0,1,.186.512l-.955,2.089a.379.379,0,0,1-.257.213.386.386,0,0,1-.091.011A.368.368,0,0,1,105.949,680.995Zm92.6-1.577a.39.39,0,0,1,.04-.545,10.566,10.566,0,0,0,1.5-1.615.379.379,0,0,1,.536-.072.388.388,0,0,1,.072.54,11.544,11.544,0,0,1-1.612,1.732.37.37,0,0,1-.159.082.381.381,0,0,1-.38-.122Zm-18.666-1.224a14.824,14.824,0,0,1-1.284-1.971.386.386,0,0,1,.148-.524.378.378,0,0,1,.519.149,13.926,13.926,0,0,0,1.219,1.867.391.391,0,0,1-.065.543.373.373,0,0,1-.146.071.386.386,0,0,1-.091.011A.381.381,0,0,1,179.882,678.194Zm-72.022-1.381a.386.386,0,0,1-.186-.511q.481-1.046.967-2.089a.379.379,0,0,1,.508-.185.387.387,0,0,1,.183.513q-.485,1.039-.965,2.084a.385.385,0,0,1-.257.213.372.372,0,0,1-.25-.026Zm93.574-.922a.389.389,0,0,1-.163-.52,15.96,15.96,0,0,0,.885-2.062.383.383,0,1,1,.721.258,16.824,16.824,0,0,1-.927,2.16.377.377,0,0,1-.248.2.386.386,0,0,1-.091.011A.368.368,0,0,1,201.434,675.891ZM177.6,674.105c-.275-.682-.535-1.423-.773-2.2a.386.386,0,0,1,.252-.482.4.4,0,0,1,.479.255c.231.757.483,1.475.751,2.136a.386.386,0,0,1-.265.521.375.375,0,0,1-.088.011A.384.384,0,0,1,177.6,674.105Zm-67.8-1.462a.387.387,0,0,1-.18-.515q.494-1.042,1-2.079a.38.38,0,0,1,.511-.176.386.386,0,0,1,.175.516q-.5,1.033-.994,2.072a.382.382,0,0,1-.509.183Zm93.263-1.04a.385.385,0,0,1-.288-.461c.162-.715.293-1.464.39-2.23a.383.383,0,1,1,.76.1c-.1.791-.236,1.566-.4,2.3a.385.385,0,0,1-.283.29.351.351,0,0,1-.087.011A.362.362,0,0,1,203.064,671.6Zm-26.84-1.943c-.178-.77-.319-1.543-.416-2.3a.383.383,0,1,1,.759-.1c.094.727.229,1.473.4,2.218a.385.385,0,0,1-.282.464h0a.361.361,0,0,1-.087.01A.385.385,0,0,1,176.225,669.659ZM111.805,668.5a.388.388,0,0,1-.171-.518q.517-1.034,1.044-2.058a.38.38,0,0,1,.515-.165.389.389,0,0,1,.164.52q-.525,1.019-1.039,2.049a.388.388,0,0,1-.252.2.371.371,0,0,1-.089.011A.378.378,0,0,1,111.805,668.5Zm91.916-1.443a.385.385,0,0,1-.366-.4c.03-.743.033-1.508.007-2.273a.388.388,0,0,1,.369-.4.384.384,0,0,1,.4.372c.026.786.024,1.57-.008,2.333a.384.384,0,0,1-.291.359.407.407,0,0,1-.087.011Zm-27.7-1.642a.383.383,0,0,1-.382-.381,18.812,18.812,0,0,1,.112-2.339.39.39,0,0,1,.423-.341.386.386,0,0,1,.337.427,17.95,17.95,0,0,0-.108,2.243.382.382,0,0,1-.377.391ZM113.906,664.4a.387.387,0,0,1-.155-.523q.545-1.019,1.106-2.026a.381.381,0,0,1,.52-.147.387.387,0,0,1,.146.526q-.559,1-1.1,2.012a.378.378,0,0,1-.247.193.386.386,0,0,1-.091.011A.372.372,0,0,1,113.906,664.4Zm89.3-2.291c-.077-.742-.181-1.5-.308-2.256a.392.392,0,0,1,.311-.445.383.383,0,0,1,.441.316c.13.77.237,1.546.316,2.306a.386.386,0,0,1-.29.414.46.46,0,0,1-.05.01.3.3,0,0,1-.04,0A.383.383,0,0,1,203.2,662.108Zm-26.76-1.256a.385.385,0,0,1-.278-.468,18.02,18.02,0,0,1,.71-2.234.383.383,0,1,1,.712.284,17.062,17.062,0,0,0-.68,2.137.383.383,0,0,1-.281.282.379.379,0,0,1-.09.011A.368.368,0,0,1,176.445,660.852Zm-60.307-.481a.387.387,0,0,1-.136-.527q.583-1,1.187-1.981a.378.378,0,0,1,.526-.126.388.388,0,0,1,.123.532q-.6.976-1.179,1.966a.376.376,0,0,1-.328.191A.372.372,0,0,1,116.138,660.371Zm86.308-2.748-.054-.23q-.236-.983-.53-1.973a.386.386,0,0,1,.256-.48.375.375,0,0,1,.477.259q.3,1.006.54,2.012l.056.233a.386.386,0,0,1-.282.464h0a.366.366,0,0,1-.087.01A.384.384,0,0,1,202.446,657.623Zm-24.425-1.068a.386.386,0,0,1-.15-.525,20.508,20.508,0,0,1,1.237-1.982.382.382,0,0,1,.533-.09.388.388,0,0,1,.09.539,19.638,19.638,0,0,0-1.19,1.905.383.383,0,0,1-.245.188.389.389,0,0,1-.092.012A.382.382,0,0,1,178.021,656.555Zm-59.487-.109a.388.388,0,0,1-.111-.535q.629-.969,1.283-1.918a.38.38,0,0,1,.533-.1.389.389,0,0,1,.1.537q-.649.941-1.272,1.9a.38.38,0,0,1-.529.112Zm82.613-3.187c-.258-.712-.541-1.424-.839-2.118a.386.386,0,0,1,.2-.508.378.378,0,0,1,.5.2c.3.707.592,1.435.856,2.159a.386.386,0,0,1-.227.495l-.042.013a.377.377,0,0,1-.089.011A.385.385,0,0,1,201.146,653.259Zm56.02-.058a.386.386,0,0,1,.04-.771c.758.04,1.516.054,2.252.042a.386.386,0,0,1,.1.76.356.356,0,0,1-.084.011c-.173,0-.346,0-.521,0C258.362,653.248,257.764,653.232,257.166,653.2Zm4.19-.428a.388.388,0,0,1,.348-.417c.74-.066,1.49-.159,2.231-.28a.386.386,0,0,1,.15.756.248.248,0,0,1-.03.005c-.758.123-1.525.22-2.286.287l-.034,0A.383.383,0,0,1,261.356,652.773Zm-6.485.236c-.743-.086-1.509-.2-2.276-.331a.385.385,0,0,1,.13-.76c.752.13,1.5.239,2.233.324a.386.386,0,0,1,.046.758.375.375,0,0,1-.091.011A.338.338,0,0,1,254.872,653.009Zm-74.289-.248a.385.385,0,0,1-.035-.543c.5-.569,1.037-1.135,1.608-1.682a.381.381,0,0,1,.54.016.387.387,0,0,1-.014.544c-.555.53-1.08,1.079-1.56,1.631a.381.381,0,0,1-.288.13A.371.371,0,0,1,180.583,652.761Zm-59.459-.109a.388.388,0,0,1-.08-.539q.68-.93,1.393-1.836a.377.377,0,0,1,.536-.064.388.388,0,0,1,.062.542q-.7.9-1.377,1.817a.383.383,0,0,1-.218.146.371.371,0,0,1-.089.011A.379.379,0,0,1,121.124,652.652Zm144.737-.554a.386.386,0,0,1,.281-.466l.141-.033c.671-.164,1.36-.355,2.044-.564a.361.361,0,0,1,.477.256.386.386,0,0,1-.255.482c-.7.214-1.4.409-2.092.578l-.134.031a.4.4,0,0,1-.091.011A.383.383,0,0,1,265.861,652.1Zm-15.521.126c-.745-.169-1.49-.358-2.23-.562a.386.386,0,0,1-.268-.473.38.38,0,0,1,.469-.271c.73.2,1.462.387,2.2.554a.386.386,0,0,1,.006.751.358.358,0,0,1-.088.011A.405.405,0,0,1,250.34,652.224Zm19.9-1.422a.389.389,0,0,1,.226-.5c.692-.257,1.4-.544,2.092-.851a.373.373,0,0,1,.5.2.384.384,0,0,1-.2.507c-.709.313-1.426.606-2.131.869a.419.419,0,0,1-.044.013.377.377,0,0,1-.089.011A.384.384,0,0,1,270.24,650.8Zm-24.337.207q-1.094-.348-2.179-.73a.388.388,0,0,1-.236-.491.382.382,0,0,1,.488-.238c.716.252,1.434.492,2.157.723a.386.386,0,0,1-.024.742.394.394,0,0,1-.092.011A.388.388,0,0,1,245.9,651.009Zm-62.066-1.463A.387.387,0,0,1,183.9,649c.578-.473,1.2-.945,1.841-1.4a.381.381,0,0,1,.533.094.388.388,0,0,1-.092.537c-.631.447-1.237.908-1.8,1.37a.372.372,0,0,1-.15.076.379.379,0,0,1-.09.011A.383.383,0,0,1,183.838,649.546Zm57.73-.058q-1.072-.41-2.136-.84a.387.387,0,0,1-.212-.5.382.382,0,0,1,.5-.215q1.058.429,2.121.835a.387.387,0,0,1,.223.5.382.382,0,0,1-.359.249A.387.387,0,0,1,241.568,649.489Zm-42.223-.411c-.34-.676-.7-1.349-1.081-2a.389.389,0,0,1,.137-.528.382.382,0,0,1,.523.139c.385.664.756,1.351,1.1,2.04a.388.388,0,0,1-.168.519.446.446,0,0,1-.083.031.377.377,0,0,1-.089.011A.383.383,0,0,1,199.346,649.077ZM274.426,649a.389.389,0,0,1,.17-.518c.662-.337,1.332-.7,1.99-1.081a.386.386,0,0,1,.522.143.391.391,0,0,1-.141.527c-.671.387-1.351.756-2.026,1.1a.4.4,0,0,1-.082.03.4.4,0,0,1-.091.011A.384.384,0,0,1,274.426,649Zm-150.494.03a.387.387,0,0,1-.044-.543q.74-.882,1.513-1.733a.38.38,0,0,1,.54-.023.388.388,0,0,1,.023.545q-.763.841-1.493,1.709a.393.393,0,0,1-.2.126.366.366,0,0,1-.089.011A.38.38,0,0,1,123.933,649.033Zm113.382-1.26q-1.054-.443-2.1-.9a.387.387,0,0,1-.2-.507.382.382,0,0,1,.5-.2q1.046.45,2.1.895a.385.385,0,0,1-.148.741A.368.368,0,0,1,237.315,647.773Zm-49.775-.922a.387.387,0,0,1,.123-.531c.642-.4,1.312-.794,1.993-1.169a.38.38,0,0,1,.518.153.387.387,0,0,1-.152.524c-.659.364-1.313.747-1.957,1.148a.341.341,0,0,1-.111.048.377.377,0,0,1-.089.011A.384.384,0,0,1,187.54,646.852Zm90.863-.1a.387.387,0,0,1,.115-.532q.95-.613,1.877-1.277a.378.378,0,0,1,.532.092.387.387,0,0,1-.09.537q-.94.674-1.905,1.3a.4.4,0,0,1-.116.05.38.38,0,0,1-.412-.168Zm-45.29-.783-2.092-.9a.387.387,0,0,1-.2-.506.379.379,0,0,1,.5-.2l2.1.9a.387.387,0,0,1,.2.507.382.382,0,0,1-.262.223.386.386,0,0,1-.091.011A.368.368,0,0,1,233.114,645.971Zm-106.129-.345a.388.388,0,0,1,0-.545q.8-.822,1.644-1.615a.379.379,0,0,1,.54.019.388.388,0,0,1-.017.544q-.83.783-1.624,1.592a.379.379,0,0,1-.182.105.371.371,0,0,1-.089.011A.379.379,0,0,1,126.985,645.626Zm70.08-.481c-.416-.629-.857-1.252-1.311-1.854a.39.39,0,0,1,0-.472.342.342,0,0,1-.06-.1.386.386,0,0,1,.215-.5c.732-.291,1.452-.562,2.153-.812a.377.377,0,0,1,.489.234.388.388,0,0,1-.233.492c-.631.226-1.277.468-1.933.727.455.6.9,1.23,1.315,1.86a.387.387,0,0,1-.106.535.375.375,0,0,1-.121.054.382.382,0,0,1-.409-.16Zm-5.54-.545a.388.388,0,0,1,.176-.517c.7-.343,1.394-.669,2.087-.975a.375.375,0,0,1,.5.2.388.388,0,0,1-.2.508q-1.025.455-2.059.963a.336.336,0,0,1-.078.028.377.377,0,0,1-.089.011A.383.383,0,0,1,191.525,644.6Zm90.62-.477a.391.391,0,0,1,.068-.542q.892-.7,1.759-1.441a.381.381,0,0,1,.539.045.388.388,0,0,1-.045.544q-.88.751-1.783,1.462a.387.387,0,0,1-.145.07.379.379,0,0,1-.09.011A.385.385,0,0,1,282.145,644.123Zm-53.225.052q-1.056-.441-2.11-.864a.387.387,0,0,1-.214-.5.383.383,0,0,1,.5-.216c.706.281,1.411.572,2.12.868a.388.388,0,0,1,.206.5.382.382,0,0,1-.263.228.386.386,0,0,1-.091.011A.364.364,0,0,1,228.92,644.175Zm-98.625-1.709a.388.388,0,0,1,.041-.545q.867-.752,1.773-1.469a.381.381,0,0,1,.537.065.389.389,0,0,1-.065.542q-.894.707-1.748,1.448a.382.382,0,0,1-.249.093A.382.382,0,0,1,130.295,642.466Zm94.393.022q-1.072-.4-2.141-.764a.386.386,0,0,1-.24-.488.381.381,0,0,1,.484-.243q1.08.366,2.162.772a.386.386,0,0,1-.133.748A.354.354,0,0,1,224.688,642.487Zm-30.357-.965c-.489-.57-1-1.131-1.531-1.671a.389.389,0,0,1,0-.545.38.38,0,0,1,.541,0c.538.552,1.064,1.126,1.563,1.708a.389.389,0,0,1-.04.544.368.368,0,0,1-.159.083.386.386,0,0,1-.091.011A.376.376,0,0,1,194.331,641.523Zm5.664-.374a.387.387,0,0,1,.248-.484c.773-.248,1.512-.47,2.2-.665a.365.365,0,0,1,.471.266.386.386,0,0,1-.265.476c-.684.194-1.414.413-2.178.659l-.026.007a.381.381,0,0,1-.454-.258Zm85.653.024a.387.387,0,0,1,.023-.544q.833-.772,1.642-1.577a.377.377,0,0,1,.54,0,.385.385,0,0,1,0,.544q-.821.817-1.664,1.6a.365.365,0,0,1-.167.091.384.384,0,0,1-.09.011A.379.379,0,0,1,285.647,641.173Zm-65.262-.136q-1.095-.325-2.186-.593a.386.386,0,0,1,.181-.75c.739.18,1.48.383,2.22.6a.387.387,0,0,1-.017.746.356.356,0,0,1-.087.01A.393.393,0,0,1,220.386,641.037Zm-16-1.164a.387.387,0,0,1,.282-.466l.15-.037c.692-.17,1.4-.31,2.116-.416a.386.386,0,0,1,.147.756.221.221,0,0,1-.033.006c-.689.1-1.379.239-2.048.4l-.15.037a.4.4,0,0,1-.091.011A.383.383,0,0,1,204.388,639.873Zm11.6.1c-.75-.139-1.5-.251-2.229-.333a.386.386,0,0,1,.085-.768c.746.085,1.514.2,2.281.34a.387.387,0,0,1,.022.756.368.368,0,0,1-.09.01A.446.446,0,0,1,215.991,639.97Zm-82.134-.371a.388.388,0,0,1,.087-.538q.927-.671,1.895-1.307a.379.379,0,0,1,.529.112.387.387,0,0,1-.112.534q-.953.628-1.866,1.288a.377.377,0,0,1-.222.073A.38.38,0,0,1,133.857,639.6Zm75.017-.473a.388.388,0,0,1,.362-.406c.755-.04,1.533-.048,2.309-.021a.386.386,0,0,1,.077.76.357.357,0,0,1-.1.01c-.753-.026-1.508-.019-2.241.021h-.02A.386.386,0,0,1,208.874,639.127Zm-17.709-.845c-.562-.506-1.145-1-1.732-1.455a.39.39,0,0,1-.067-.542.38.38,0,0,1,.536-.068c.6.472,1.2.972,1.77,1.49a.386.386,0,0,1,.031.544.373.373,0,0,1-.284.131A.384.384,0,0,1,191.165,638.282Zm97.752-.322a.386.386,0,0,1-.014-.544q.778-.832,1.533-1.691a.381.381,0,0,1,.54-.033.39.39,0,0,1,.032.545q-.764.869-1.551,1.708a.378.378,0,0,1-.187.11.386.386,0,0,1-.091.011A.377.377,0,0,1,288.916,637.96Zm-151.262-.9a.386.386,0,0,1,.135-.527q.979-.583,2-1.133a.382.382,0,0,1,.517.159.387.387,0,0,1-.157.521q-1.007.543-1.972,1.117a.36.36,0,0,1-.1.042.384.384,0,0,1-.09.011A.379.379,0,0,1,137.654,637.06Zm49.955-1.572c-.627-.427-1.27-.834-1.908-1.211a.388.388,0,0,1-.138-.528.38.38,0,0,1,.523-.138c.653.384,1.31.8,1.951,1.237a.387.387,0,0,1,.1.535.379.379,0,0,1-.531.1Zm-45.951-.617a.386.386,0,0,1,.181-.514q1.023-.5,2.09-.955a.379.379,0,0,1,.5.2.387.387,0,0,1-.2.506q-1.052.454-2.062.941a.329.329,0,0,1-.075.028.375.375,0,0,1-.088.011A.385.385,0,0,1,141.658,634.87Zm150.3-.339a.388.388,0,0,1-.049-.544q.724-.877,1.425-1.777a.381.381,0,0,1,.537-.064.386.386,0,0,1,.064.541q-.707.908-1.437,1.793a.389.389,0,0,1-.2.129.371.371,0,0,1-.089.011A.381.381,0,0,1,291.963,634.531Zm-146.129-1.5a.386.386,0,0,1,.222-.5q1.058-.406,2.16-.778a.379.379,0,0,1,.484.244.387.387,0,0,1-.241.488q-1.087.367-2.132.767a.4.4,0,0,1-.046.015.38.38,0,0,1-.089.011A.384.384,0,0,1,145.834,633.033Zm37.884.165c-.668-.337-1.358-.654-2.05-.948a.385.385,0,0,1-.205-.5.378.378,0,0,1,.5-.207c.708.3,1.414.623,2.1.967a.389.389,0,0,1,.172.518.381.381,0,0,1-.252.2.386.386,0,0,1-.261-.029Zm-33.573-1.655a.386.386,0,0,1,.259-.479q1.087-.323,2.213-.612a.367.367,0,0,1,.464.279.387.387,0,0,1-.275.47q-1.114.286-2.187.6l-.018.005a.381.381,0,0,1-.456-.266Zm29.414-.1c-.7-.242-1.422-.47-2.153-.671a.388.388,0,0,1-.267-.476.384.384,0,0,1,.47-.269c.747.207,1.488.439,2.2.688a.387.387,0,0,1-.036.74.351.351,0,0,1-.087.011A.375.375,0,0,1,179.559,631.44Zm115.235-.5a.391.391,0,0,1-.079-.541q.676-.918,1.33-1.855a.38.38,0,0,1,.533-.094.389.389,0,0,1,.093.538q-.661.944-1.341,1.87a.38.38,0,0,1-.218.145.386.386,0,0,1-.091.011A.38.38,0,0,1,294.794,630.935Zm-140.235-.554a.361.361,0,0,1,.292-.459q1.139-.251,2.249-.452a.386.386,0,0,1,.158.755l-.023,0q-1.1.2-2.222.446a.356.356,0,0,1-.081.009A.383.383,0,0,1,154.559,630.381Zm20.654-.15c-.723-.155-1.471-.292-2.22-.406a.386.386,0,0,1,.114-.763c.765.118,1.527.256,2.264.415a.387.387,0,0,1,.011.752.4.4,0,0,1-.087.01A.426.426,0,0,1,175.213,630.23Zm-16.172-.693a.394.394,0,0,1,.325-.436q1.156-.162,2.28-.274a.386.386,0,0,1,.129.76.537.537,0,0,1-.053.009q-1.11.111-2.249.271a.365.365,0,0,1-.054,0A.381.381,0,0,1,159.041,629.537Zm11.711.008c-.739-.068-1.49-.122-2.255-.155a.386.386,0,0,1,.032-.77q1.166.05,2.292.158a.387.387,0,0,1,.056.76.342.342,0,0,1-.086.01A.31.31,0,0,1,170.752,629.546Zm-7.178-.489a.389.389,0,0,1,.361-.406q1.165-.063,2.3-.072a.386.386,0,0,1,.094.76.388.388,0,0,1-.087.01c-.742.007-1.495.03-2.26.072h-.022A.384.384,0,0,1,163.574,629.057Zm133.862-1.873a.391.391,0,0,1-.105-.536q.632-.956,1.243-1.923a.38.38,0,0,1,.527-.119.389.389,0,0,1,.118.533q-.617.977-1.252,1.938a.383.383,0,0,1-.531.108ZM299.9,623.3a.389.389,0,0,1-.13-.53q.593-.987,1.161-1.981a.382.382,0,0,1,.523-.142.387.387,0,0,1,.139.527q-.574,1-1.168,2a.379.379,0,0,1-.328.186A.379.379,0,0,1,299.9,623.3Zm2.3-3.988a.389.389,0,0,1-.15-.524q.549-1.01,1.077-2.024a.383.383,0,0,1,.517-.161.388.388,0,0,1,.16.521q-.531,1.021-1.085,2.036a.376.376,0,0,1-.244.189.364.364,0,0,1-.088.011A.4.4,0,0,1,302.2,619.312Zm2.136-4.073a.385.385,0,0,1-.171-.518q.51-1.03,1-2.064a.38.38,0,0,1,.51-.182.388.388,0,0,1,.18.514q-.493,1.041-1.007,2.077a.381.381,0,0,1-.251.2.39.39,0,0,1-.091.012A.373.373,0,0,1,304.337,615.238Zm1.981-4.153a.386.386,0,0,1-.189-.511q.475-1.05.925-2.1a.383.383,0,1,1,.7.307q-.455,1.054-.932,2.111a.383.383,0,0,1-.257.215.366.366,0,0,1-.089.011A.39.39,0,0,1,306.318,611.086Zm1.834-4.219a.387.387,0,0,1-.207-.5q.44-1.071.854-2.129a.382.382,0,0,1,.5-.218.389.389,0,0,1,.216.5q-.417,1.066-.859,2.142a.383.383,0,0,1-.263.228.364.364,0,0,1-.088.011A.393.393,0,0,1,308.152,606.866Zm1.688-4.283a.385.385,0,0,1-.223-.5q.4-1.087.78-2.16a.383.383,0,0,1,.489-.234.387.387,0,0,1,.232.493q-.379,1.077-.787,2.172a.383.383,0,0,1-.266.239.394.394,0,0,1-.092.011A.361.361,0,0,1,309.84,602.583Zm1.543-4.338a.386.386,0,0,1-.24-.488q.369-1.1.706-2.185a.383.383,0,0,1,.481-.252.388.388,0,0,1,.25.485q-.343,1.085-.712,2.2a.382.382,0,0,1-.273.252.366.366,0,0,1-.089.011A.389.389,0,0,1,311.383,598.245Zm1.39-4.391a.386.386,0,0,1-.258-.479q.331-1.126.625-2.21a.383.383,0,1,1,.738.205q-.3,1.092-.629,2.224a.387.387,0,0,1-.367.276A.374.374,0,0,1,312.773,593.854Zm1.222-4.442a.384.384,0,0,1-.276-.468q.285-1.143.528-2.234a.383.383,0,1,1,.746.17q-.246,1.1-.533,2.252a.388.388,0,0,1-.281.282.379.379,0,0,1-.09.011A.349.349,0,0,1,313.995,589.412Zm1.025-4.493a.385.385,0,0,1-.3-.453q.23-1.176.4-2.257a.382.382,0,1,1,.754.124q-.177,1.092-.409,2.282a.388.388,0,0,1-.285.3.381.381,0,0,1-.091.011A.417.417,0,0,1,315.02,584.919Zm.781-4.743a.383.383,0,0,1-.336-.427c.043-.393.081-.774.111-1.138a.383.383,0,1,1,.762.064c-.032.373-.069.759-.114,1.161a.376.376,0,0,1-.38.341A.353.353,0,0,1,315.8,580.176Zm.9-4c-.245.5-.459.783-.582.777s-.305-.308-.492-.836l-4.18,1.357.061-1.109,3.487-3.266a20.778,20.778,0,0,1-.094-3.416l.161-2.92a.179.179,0,0,0-.168-.19l-1.362-.076a4.394,4.394,0,0,0-1.154.087l-10.049,2.107.074-1.337,7.816-4.288a6.991,6.991,0,0,1,.256-2.765l1.924.108a4.314,4.314,0,0,1,.112,1.4l2.781-1.525a.268.268,0,0,0,.139-.221l.205-3.718c.149-2.716,1.31-4.873,1.885-4.84s1.491,2.306,1.342,5.022l-.205,3.717a.273.273,0,0,0,.113.236l2.6,1.827a4.309,4.309,0,0,1,.264-1.381l1.925.107a7.013,7.013,0,0,1-.05,2.777l7.3,5.134-.073,1.337-9.756-3.217a4.429,4.429,0,0,0-1.137-.216l-1.363-.076a.178.178,0,0,0-.187.169l-.161,2.92a20.689,20.689,0,0,1-.469,3.383l3.108,3.637-.061,1.108Z" fill="#9ec0ff"/>
  </g>
</svg>
